<svg xmlns="http://www.w3.org/2000/svg" width="40" height="40" viewBox="0 0 40 40">
    <g fill="none" fill-rule="evenodd">
        <rect width="40" height="40" fill="#F5483A" rx="8"/>
        <path fill="#FFF" fill-rule="nonzero" stroke="#FFF" stroke-width=".5" d="M14.88 21.988l5.235 4.479-.012.01-5.222-4.489zm5.23 3.419l-4.728-4.045 4.717 4.054.01-.01zM33 14.837v16.35H7V14.835l2.78-1.877V8.476h6.635L20.082 6l3.62 2.476h6.517v4.458L33 14.837zm-2.781 1.769l1.733-1.512-1.733-1.185v2.697zm-12.367-8.13h4.426l-2.199-1.504-2.227 1.504zm-7.285 8.748l4.815 4.138 4.717 4.054.01-.01 9.322-8.18V9.289H10.567v7.936zm-2.512-2.13l1.725 1.475v-2.64l-1.725 1.164zm24.157.836L20.125 26.475l-.01-.008-5.234-4.479-7.093-6.069v14.457h24.424V15.93zm-12.27 5.174c-2.042 0-3.773-1.54-3.773-4.003 0-2.643 1.78-4.926 4.545-4.926 2.166 0 3.623 1.565 3.623 3.707 0 1.925-1.047 3.054-2.217 3.054-.498 0-.959-.347-.92-1.13h-.05c-.436.758-1.01 1.13-1.756 1.13-.722 0-1.345-.603-1.345-1.617 0-1.59 1.22-3.04 2.951-3.04.535 0 1.008.116 1.332.27l-.423 2.321c-.187.975-.038 1.425.374 1.437.634.014 1.344-.86 1.344-2.347 0-1.86-1.083-3.195-3.013-3.195-2.03 0-3.735 1.656-3.735 4.259 0 2.142 1.357 3.464 3.2 3.464.71 0 1.369-.154 1.88-.45l.199.553c-.685.371-1.382.513-2.217.513zm1.53-6.056a2.105 2.105 0 0 0-.622-.09c-1.095 0-1.979 1.065-1.979 2.31 0 .564.273.975.822.975.722 0 1.381-.95 1.519-1.745l.26-1.45z"/>
    </g>
</svg>
